<svg width="45" height="45" viewBox="0 0 45 45" fill="none" xmlns="http://www.w3.org/2000/svg">
<rect width="45" height="45" rx="22.5" fill="white"/>
<g clip-path="url(#clip0_102_56)">
<path d="M30.376 23.416L19.777 30.482C19.7017 30.5321 19.6142 30.5609 19.5239 30.5652C19.4336 30.5695 19.3437 30.5492 19.264 30.5065C19.1843 30.4639 19.1176 30.4003 19.0711 30.3228C19.0246 30.2452 19 30.1564 19 30.066V15.934C19 15.8436 19.0246 15.7548 19.0711 15.6773C19.1176 15.5997 19.1843 15.5362 19.264 15.4935C19.3437 15.4508 19.4336 15.4305 19.5239 15.4348C19.6142 15.4392 19.7017 15.4679 19.777 15.518L30.376 22.584C30.4445 22.6297 30.5006 22.6915 30.5395 22.7641C30.5783 22.8367 30.5986 22.9177 30.5986 23C30.5986 23.0823 30.5783 23.1633 30.5395 23.2359C30.5006 23.3085 30.4445 23.3703 30.376 23.416Z" fill="#002F55"/>
</g>
<defs>
<clipPath id="clip0_102_56">
<rect width="24" height="24" fill="white" transform="translate(11 11)"/>
</clipPath>
</defs>
</svg>
